<svg class="svg-icon" xmlns="http://www.w3.org/2000/svg" width="18" height="18" viewBox="0 0 18 18" fill="none">
    <path d="M5.81958 9L12 14" stroke="white" stroke-width="1.5" stroke-linecap="round"/>
    <path d="M5.81958 9L12 4" stroke="white" stroke-width="1.5" stroke-linecap="round"/>
    <mask id="path-4-inside-1_186_12922" fill="white">
        <path d="M0 3C0 1.34315 1.34315 0 3 0H15C16.6569 0 18 1.34315 18 3V15C18 16.6569 16.6569 18 15 18H3C1.34315 18 0 16.6569 0 15V3Z"/>
    </mask>
<!--    <path d="M3 1H15V-1H3V1ZM17 3V15H19V3H17ZM15 17H3V19H15V17ZM1 15V3H-1V15H1ZM3 17C1.89543 17 1 16.1046 1 15H-1C-1 17.2091 0.790862 19 3 19V17ZM17 15C17 16.1046 16.1046 17 15 17V19C17.2091 19 19 17.2091 19 15H17ZM15 1C16.1046 1 17 1.89543 17 3H19C19 0.790861 17.2091 -1 15 -1V1ZM3 -1C0.790861 -1 -1 0.790862 -1 3H1C1 1.89543 1.89543 1 3 1V-1Z" fill="white" mask="url(#path-4-inside-1_186_12922)"/>-->
</svg>