<svg xmlns="http://www.w3.org/2000/svg" width="35" height="35" viewBox="0 0 35 35" fill="none" class="svg-icon">
    <mask id="path-2-inside-1_3017_103" fill="white">
        <path d="M0 8C0 3.58172 3.58172 0 8 0H27C31.4183 0 35 3.58172 35 8V27C35 31.4183 31.4183 35 27 35H8C3.58172 35 0 31.4183 0 27V8Z"/>
    </mask>
<!--    <path d="M8 1H27V-1H8V1ZM34 8V27H36V8H34ZM27 34H8V36H27V34ZM1 27V8H-1V27H1ZM8 34C4.13401 34 1 30.866 1 27H-1C-1 31.9706 3.02944 36 8 36V34ZM34 27C34 30.866 30.866 34 27 34V36C31.9706 36 36 31.9706 36 27H34ZM27 1C30.866 1 34 4.13401 34 8H36C36 3.02944 31.9706 -1 27 -1V1ZM8 -1C3.02944 -1 -1 3.02944 -1 8H1C1 4.13401 4.13401 1 8 1V-1Z" fill="white" mask="url(#path-2-inside-1_3017_103)"/>-->
    <path d="M9.72179 27.2219C10.312 27.2219 9.02149 27.2219 9.72179 27.2219ZM9.72179 27.2219C15.9428 27.2219 23.8792 27.2219 25.2773 27.2219C26.8329 27.2219 27.2218 25.9256 27.2218 25.2775C27.2218 25.2775 27.2218 14.583 27.2218 13.6108C27.2218 12.6386 18.4718 5.83301 17.4996 5.83301C16.5273 5.83301 7.77734 12.6386 7.77734 13.6108C7.77734 14.583 7.77734 23.7219 7.77734 25.2775C7.77734 26.833 9.07364 27.2219 9.72179 27.2219ZM11.6662 26.2497C11.6662 26.2497 11.6662 20.4163 11.6662 19.4441C11.6662 18.4719 15.5551 18.4719 15.5551 19.4441C15.5551 20.4163 15.5551 26.2497 15.5551 26.2497M23.3329 18.4719C23.3329 19.4441 23.3329 20.4163 23.3329 21.3886C23.3329 22.3608 19.444 22.3608 19.444 21.3886C19.444 20.4163 19.444 19.4441 19.444 18.4719C19.444 17.4997 23.3329 17.4997 23.3329 18.4719Z" stroke="white" stroke-width="1.5" stroke-linecap="round"/>
</svg>